<?xml version="1.0" encoding="UTF-8"?>
<svg version="1.1" viewBox="0 0 2048 474" width="518" height="120" xmlns="http://www.w3.org/2000/svg">
<path transform="translate(943,23)" d="m0 0h118l123 1 14 3 16 8 9 7 9 10 8 15 4 15v304l-3 16-5 12-8 12-8 8-11 7-12 5-14 3-66 1h-51l-197-1-14-3-12-5-10-7-10-9-7-10-5-10-3-11-1-7v-301l3-15 5-12 7-10 6-7 12-9 14-6 14-3z" fill="#0A0E29"/>
<path transform="translate(1049,23)" d="m0 0 135 1 14 3 16 8 9 7 9 10 8 15 4 15v304l-3 16-5 12-8 12-8 8-11 7-12 5-14 3-31-1v-2l-2-2h2v-3l2-1h6l3 3 10 2 6-1 10-1 6-2h2v-2l13-5 5-3 3-1v-2l4-4v-3l-3-1 4-6h2l1-5 2-5 2-9 1-16-4-2-12-13-11-8-7-6-1-6 3-5 7-1 5 3 5 4 5-6 1-5 2 3 6 1v-4h2v-8l-2-3-3 1-4-6-7-7 1-5 8-6h2v-2h4l1-2-3-1 3-1 2-7v-6l2-1 2 4 1-1v-9l-4-3 1-10-11 9-8 8-8 7-10 10-8 7-8 8-8 7-8 8-8 7-4 5-5 5h-2l-2 4-57 57-1 2h-2l-2 4-22 22-6 7-1 4h7v1h-8l-2-2-10 2-6-3v-2-1l-3-1-7 3-4-3v-2l-2-1 4-5-2-2h3l1-3h4l2-5 4-4 8-7 16-16 5-3 13-3h5l-1 5 6-7v-3l-1 1-10 2-9 3-6 3h-3v2h-3l2-7 13-7-1-5-12 3-11 6-10 10-9 11-3 3-5-5-12-13v-2h-2l-4-5-23-8-27-11-15-8-13-10-9-9-10-14-7-15-7-21-3-12-18-18 1-2 10 3 8 4-3-5-17-17 2-4 25-25 5 1 21 21 2 1v2h2l1 3-7 7-7 8-15 15h-2l4 10v3l22-22 7-8 5-5 3 1 3 15 6 16 7 13 11 12 9 7 18 10 13 5 11 2-1 4-9 10-8 7-9 8-7 4-7 1 10 5 6-1 11-8 10-9 11-10 2-2h-2l-1-4h2v-2l20-4 16-6 11-6 14-10 8-8 10-14 5-11 3-9 3-13h3l5 2 9-2h3l-10-10 1-4 27-27 4 2 22 22 6 4-1 4-22 22 3 7v2l4-2 7-8 11-12 11-11-2-4-9-9-7-8-12-11-4-6-7-25-7-16-10-16-9-10-15-11-18-9 1-3-3-2 1-5 3-3v-2h-2l-7-8-8-7-7-8-36-36-5-3 1-8h-2v-2z" fill="#13182B"/>
<path transform="translate(1023,69)" d="m0 0 4 1 13 13 7 6 5 5 10 4 17 5 21 9 17 9 14 11 9 10 11 19 7 18 6 21 7 8 3 2v2l4 2 4 4v2l3 1 7 8 5 5-2 4-17 17-7 8-5 6h-3l-2-8-2-1 23-23 1-3-4-2-8-7-18-18-4 2-5 4-7 8-13 13 1 4 9 9-1 2-3-1-9 2-5-2-2-1-3 13-6 16-9 14-11 12-12 9-14 8-16 6-12 2-5 1h-3l-1 6 3-1 1 2-6 4-16 15-10 7-6 4-5-1-12-5v-1l10-1 11-7 11-11 7-6 4-5 1-3-11-1-13-5-18-10-9-7-9-9-7-11-6-13-5-17-1-7-4 2-8 8-7 8-12 12-3 2-2 3-1-4-3-7v-3l8-7 14-14 7-8 1-4h-2v-2l-4-2-20-20-5 1-25 25 2 4 17 17v3l-6-2-10-4-5-1-13-13-1-5 19-19 7-8 9-9 2-9 3-14 5-12 9-15 7-9 4-5 11-9 15-10 17-8 35-12 6-5 14-16z" fill="#FEEDAD"/>
<path transform="translate(810,214)" d="m0 0 3 1 1 2-3 1-1 11v17l3 15 4 1 5 5 15 14 9 9 8 7 13 12 12 11 19 19 3 2v2l4 2 7 8 27 27 7 8 14 15 7 8 15 15 5 3 7 7v-3l3-3-4-3v-2l-4-2v-3-2l-4-5h3l13 13v3l4 2 2 3-1 2 3 1-2 1v2l-4 1h11l-1-5-3-1 5-2h3l1-10-1-3-7-6-4-9-6-7-18-12-4-2 1-2h9l10 5v2l3 1 5 7 4 7 4 4v2l4 2 2 2h6l3-1 2-4 3-5 4 1 3-1 1 3-5 4-2 4h-2l-4 8h-2l-1 2-1-1-3 7-2 2 5 5 8-3 5 1-1 2h-2l3 3 5 1 5-2 4 1 2 1 1-5 8-9h2l2-4 17-17 1-2h2l2-4 57-57 6-7 12-12 8-7 8-8 8-7 8-8 8-7 10-10 8-7 11-10h2l-1 10 4 2 1 3v8h-3l-2-3v7l-2 7h-3l2 1-1 3-4-1v2l-10 7 1 5 8 8 1 4 4-2 2 4-1 8h-2v4h-6l-1-1-7 9-7-6-7-1-3 1-2 4 1 6 6 5 11 8 9 9 5 6 2 1v5l2 1h-2v11l-2 10-3 4-1 4h-2l-2 5-1 1 3 3-3 5h-2v2l-6 4-12 5h-3v2l-4 2-10 2h-7l-5 1-5-2-5-1-1-3-8 1 1 5-1 2h20v1l-55 1h-51l-197-1-14-3-12-5-10-7-10-9-7-10-5-10-3-11-1-7v-144l1-27z" fill="#0C0F29"/>
<path transform="translate(1151,206)" d="m0 0 4 2 22 22 6 4-1 4-22 22 3 7v2l2 1h-2l-2 5-2 6-3 14-6 15-9 15-8 10-11 11-13 9-17 8-20 7-18 7-8 5-9 9-9 11-3 3-5-5-12-13v-2h-2l-4-5-23-8-27-11-15-8-13-10-9-9-10-14-7-15-7-21-3-12-18-18 1-2 10 3 8 4-3-5-17-17 2-4 25-25 5 1 21 21 2 1v2h2l1 3-7 7-7 8-15 15h-2l4 10v3l22-22 7-8 5-5 3 1 3 15 6 16 7 13 11 12 9 7 18 10 13 5 11 2-1 4-9 10-8 7-9 8-7 4-7 1 10 5 6-1 11-8 10-9 11-10 2-2h-2l-1-4h2v-2l20-4 16-6 11-6 14-10 8-8 10-14 5-11 3-9 3-13h3l5 2 9-2h3l-10-10 1-4 23-23z" fill="#FDB051"/>
<path transform="translate(1018,158)" d="m0 0h15l16 4 15 8 12 9 9 9 9 16 5 13 3 16v8l-4 19-5 13-6 10-9 10-13 10-16 8-16 4h-16l-15-4-17-8-10-7-10-10-9-14-6-16-2-10v-18l2-12 5-13 9-14 9-10 10-8 10-6 15-5z" fill="#0B0E29"/>
<path transform="translate(1049,23)" d="m0 0 135 1 14 3 16 8 9 10 7 8 3 4v5l2 1h-4l-1 4-5 2-1-1 4 10 2 16-3 5-8 8-14 10-11 9 1 5 4 4 9 1 6-5 6-11 5-4 4 2v18l-4 5 2 1v-2h2v3h3v5l-2 3-1 3-5 2-10 8 2 4 8 4v2l5 2h2l2-1 1 9-1 7 1 4 2 7v8l-5-3-10-9-8-7-7-7-8-7-12-12-8-7-13-13-8-7-81-81-7-8-9-9-9-11-3-5z" fill="#0B0E29"/>
<path transform="translate(943,23)" d="m0 0h40l2 1-1 4-7 9-12 13-29 29-3 4h-2v2l-5 5-3 1-2 4-19 19-8 7-7 7-7 8-8 8-8 7-25 25h-2v2l-8 7-11 11-2 4h-2l-1 3-2-1 1-6v-6l4-1 1-10 2-3-1-5h2l-1-12-7 1v-10l-2-7v-8l1-8-1-3v-11l-2-4-1-6v-17l3-15 5-12 7-10 6-7 12-9 14-6 14-3z" fill="#0D1029"/>
<path transform="translate(1023,170)" d="m0 0h5l13 15 5 4 2 3 9-1 8-2h5l2 2v16l-2 4h-6l-9-6-5-6-2-1 1 16h21l8 2 1 2-7 8-9 10 1 4 8 7 7 6v3l-14 4-17 2-1 30-4-1-10-10-6-7-4 2-7 7-1 3 6 3h8l7-1 1 3-3 6-7 10-4-1-8-11-2-4v-4l-5 3h-4l-2-19v-9l-2-1-22-3-9-2 2-4 4-2v-2l10-8 2-4-15-15v-5l9-3h20v-12l1-3-10 6-9 6h-5l-1-2v-19l8 1 15 4 3 1 1-10 3-1 5 2 2-4z" fill="#FEEAA9"/>
<path transform="translate(1185,213)" d="m0 0 6 4 3 3v2h2v2h3l1 3h3v2h2l2 2-1 3-5-3 3 5-1 5-1 4v4l2 1-12 12-7 8-11 14-3 6-4 13 6-4 10-9h2v-2l8-7 4-2 1-3 8-7 14-14 3-4-1-5 4 1 1 7-3 9 2 2 3-1v3l-8 7-15 14-7 7-8 7-8 8-8 7-8 8-8 7-4 5-5 5h-2l-2 4-57 57-1 2h-2l-2 4-22 22-6 7-1 4h7v1h-8l-2-2-10 2-6-3v-2-1l-3-1-7 3-4-3v-2l-2-1 4-5-2-2h3l1-3h4l2-5 4-4 8-7 16-16 5-3 13-3h5l-1 5 6-7v-3l-1 1-10 2-9 3-6 3h-3v2h-3l2-7 13-7-1-5-3-1 13-5 17-6 17-9 11-9 10-10 7-10 8-14 6-16 3-16 4-6 13-13 7-8 13-13-2-4-12-12 1-4z" fill="#13172B"/>
<path transform="translate(1087,115)" d="m0 0h6l6 5 6-2 1-3 11 6 14 11 9 10 11 19 7 18 6 21 7 8 3 2v2l4 2 4 4v2l3 1 7 8 5 5-2 4-17 17-7 8-5 6h-3l-2-8-2-1 23-23 1-3-4-2-8-7-18-18-4 2-5 4-7 8-13 13 1 4 9 9-1 2-3-1-9 2-5-2-2-1-3 13-6 16-9 14-11 12-12 9-14 8-16 6-12 2-5 1h-3l-1 6 3-1 1 2-6 4-16 15-10 7-6 4-5-1-12-5v-1l10-1 11-7 11-11 7-6 4-5 1-3-11-1-13-5-18-10-9-7-9-9-7-11v-6h9l1-2 10 14 9 9 16 9 12 5 12 3h16l16-4 16-8 13-10 9-10 8-16 4-14 2-11v-12h2v-2l4-1 2 1v-2h2v-5h1l1 5 5-2 24-24 6-4-4-16-5-12-8-15-7-9-8-7-9-5-5-2-9-6-10-4 3-1z" fill="#FEECAB"/>
<path transform="translate(1071,115)" d="m0 0 7 1 19 8 6 5 8 3 11 8 8 9 9 16 5 11 4 13 1 6-10 8-22 22-4 1-2-6-4-15-7-16-7-9-11-11-21-14-9-4-16-4 3-5 14-14 16-12z" fill="#0B0F2A"/>
<path transform="translate(934,244)" d="m0 0 3 1 3 15 6 16 7 13 11 12 9 7 18 10 13 5 11 2-1 4-9 10-8 7-9 8-7 4h-7l-12-5-15-9-15-10-7-7-8-13-8-15-7-19 1-5 8-7 11-11 7-8z" fill="#0B0E29"/>
<path transform="translate(1114,246)" d="m0 0 6 4 19 19 10 8-3 11-7 17-11 18-9 10-9 6-13 8-8 5-12 4h-9l-8-4-10-9-11-11-2-1v-2h-2v-3l17-5 16-8 12-8 10-9 8-10 8-14 4-12 3-13z" fill="#0B0E29"/>
<path transform="translate(974,116)" d="m0 0h7l8 4 14 12 9 9 4 3v2l-23 7-12 6-14 10-12 12-7 11-6 14-4 13-2 8-4-2-9-10-18-18-1-2 1-12 5-15 7-12 10-14 12-9 11-7 6-4 14-5z" fill="#0B0E29"/>
<path transform="translate(841,323)" d="m0 0 8 1 14 10 4 6 3 7 10 2 6 4 3 4v2l-20 1-9 3-6 4-7 8-2 6v14l3 9 4 5 10 4 11 1 8-2 7-5 7-10 2-5 2-16 5 1 7 5 2 8v4l6 2 8 6 6 5 2 5-9 11-10 11-3 1h-8l-4-4-5-9h-2l-10 11-6 2-14-1-10-3-11-6-11-11-8-16-2-10v-9l3-5 11-12 14-9 4-4v-10h-7l-9 4-3 2-1 9-9 4h-2l-1-15 2-5 12-13z" fill="#1482F4"/>
<path transform="translate(905,38)" d="m0 0h10l4 2 8 10 9 11-1 4-9 8-5 2h-8v21l-5 3-9 1-1-17-5-10-8-9-6-3h-17l-9 2-4 5-3 9v15l5 10 5 5 8 5 9 2h16v3l-5 6-10 4-8 1v7l-7 9-9 6h-8l-9-6-11-10v-14l1-3 2-1h10l1 3v10l3 4 3 1h7l5-1v-9l-8-7-10-8-13-13-1-2v-12l4-11 6-11 8-9 9-6 13-5 5-1h11l7 4 9 10 11 13 3 2 5-1 4-5-1-6-6-4-5-2-3-6v-5z" fill="#FD7331"/>
<path transform="translate(1151,206)" d="m0 0 4 2 22 22 6 4-1 4-22 22 3 7v2l2 1h-2l-2 5-2 6-3 14-6 15-9 15-8 10-11 11-13 9-17 8-18 6-4-1 1-1-13-4-14-9-12-12-4-3v-2l-4-2v-1h-2l-1-4h2v-2l8-2h4v3h2v2l4 2 16 16 8 5 3 1h9l14-5 19-12 9-6 8-9 13-22 7-19 1-5-13-11-15-15 3-3 9-1-4-5-5-5 1-4 23-23z" fill="#FDB254"/>
<path transform="translate(1205,320)" d="m0 0 5 1 11 11 1 7-6 7-7-6-7-1-3 1-2 4 1 6 6 5 11 8 9 9 5 6v11l-4 12-8 15-9 9-16 8-8 2h-13l-10-6-7-7-9-15-6-5-4 4-4 7v4l6 2 4 2 8 2-1 8-3 4h-8l-5-3-14-14-4-5 1-4 10-10 5-3h4v-8l4-7 7-6 4-1 1 1 2 17 5 10 5 5 5 4 9 3h12l9-4 5-4 3-8v-18l-5-10-7-6-7-3h-27l4-6 8-6 3-2 6-1 6-9 7-8z" fill="#EC731B"/>
<path transform="translate(1136,38)" d="m0 0h8l7 2-1 10-5 1-5-1-5 3-2 3 1 7 5 8 4-1 10-13 7-8 9-8 6-2 11 1 13 4 11 6 10 10 6 12 3 11 1 11-3 5-8 8-14 10-11 9 1 5 4 4 9 1 6-5 6-11 5-4 4 2v18l-5 6-14 8h-9l-8-6-5-8-2-9-12-2-10-6-2-5h23l8-3 5-5 5-6 3-8v-11l-3-12-5-5-7-3h-19l-8 4-8 9-4 8-1 4-1 14-2 1-6-4-6-7-1-8 1-5-14-7-7-6-1-3 7-8 7-7 6-7z" fill="#F8232D"/>
<path transform="translate(1032,24)" d="m0 0h16l11 13 9 10 8 8 7 8 80 80 8 7 13 13 8 7 12 12 8 7 7 7 11 9 4 5 3 2h-2l1 6-4 1-8-8-4-1v4h2l1 4 7 2 3 6-1 5-4 2 1-6-9-10-25-25-8-7-9-9-6-5-3-1v4h-2l-3-9 3-1 2-4-4-2-5-1-3 6 1 9-1 3v-2h-2l-7-16-10-16-9-10-15-11-18-9 1-3-3-2 1-5 3-3v-2h-2l-7-8-8-7-7-8-36-36-5-3 1-8h-2z" fill="#0B0E29"/>
<path transform="translate(815,59)" d="m0 0 3 1 1 7 2 4 2 1-2 5h-2l2 7h1l1 10 7 8 9 9 13 10 3 3v7l-3 3-3 1h-7l-5-3-2-3v-13l-12 1v17l12 11 7 4h8l10-7 5-7 1-7 14-4 6-4 3-4h2l1-3 3-2h9l-17 17-7 8-8 8-8 7-25 25h-2v2l-8 7-11 11-2 4h-2l-1 3-2-1 1-6v-6l4-1 1-10 2-3-1-5h2l-1-12-7 1v-10l-2-7v-8l1-8-1-3v-11l-2-4-1-6v-17l3-15z" fill="#14182B"/>
<path transform="translate(1185,213)" d="m0 0 6 4 3 3v2h2v2h3l1 3h3v2h2l2 2-1 3-5-3 3 5-1 5-1 4v4l2 1-12 12-7 8-11 14-3 6-4 13 6-4 10-9h2v-2l8-7 4-2 1-3 8-7 14-14 3-4-1-5 4 1 1 7-3 9 2 2 3-1v3l-8 7-15 14-7 7-8 7-8 8-8 7-8 8-8 7-4 5-5 5h-2l-2 4-5 5h-2v-3l-5 2-4-2-1 4-4 3-3-1-1-3 5-2v-2l-2-1h5l2-4 3-1v-2h2l3-6-2-2h2l3-9 8-14 6-16 3-16 4-6 13-13 7-8 13-13-2-4-12-12 1-4z" fill="#12172B"/>
<path transform="translate(1160,156)" d="m0 0 5 1 3 2 1 4-4 2 2 9h2v-4l4 1 13 12 7 7 8 7 27 27 2 3-1 5-2 2-8 3-4 2 4-1h10l2 2-1 6-4-4-8-1v3l6 5-2 4-7 8-15 15-8 7-5 5h-2v2l-11 9-5 4h-2l4-16 9-12 18-20 5-5-2-5 1-4 1-5-2-5 5 2-1-4-7-2 1-3h-3v-2h-2v-2l-3-1-5-5-5 4-7-6-5-5-7-9-6-22 1-8-1-5z" fill="#12172B"/>
<path transform="translate(847,338)" d="m0 0h7l1 1v10l-5 5-15 10-11 12-1 3v9l3 13 8 14 9 9 16 8 13 2 10-1 7-6 6-7 4 5 4 7v2h10l5-3 9-11 2 1 1 3-2 3-4 1-4 4 5-2 2-1-3 6 7 1 2-6 6-3 7-8 4 2 9 12-1 3 5 1 1 3-3 2h-16l-13-1-6 2h-30l-6 3v2l-10 1h-11l-14-3-12-5-10-7-10-9-7-10-5-10-3-11-1-11 2-1 2 3 2-11h2l1-5h2l2-4 2-5v-2l10-4h2v-9l7-5z" fill="#13172B"/>
<path transform="translate(1049,23)" d="m0 0h12l2 4 5 5v2l4 2 10 10 8 7 96 96 6 5 16 16 8 7 15 15 5 10v8l-5-3-10-9-8-7-7-7-8-7-12-12-8-7-13-13-8-7-81-81-7-8-9-9-9-11-3-5z" fill="#FEEAA8"/>
<path transform="translate(985,23)" d="m0 0 12 1 1 1v5l-7 9h-2l-2 4-30 30-7 8-18 18-7 8-8 7-40 40-8 7-10 10-8 7-10 10h-2v2l-8 7-9 9-5 4h-2v-10l4-6 16-16h2v-2l8-7 25-25 8-7 7-7 7-8 8-8 8-7 14-14 7-8h2v-2l41-41 9-11 3-4z" fill="#FEECAC"/>
<path transform="translate(815,263)" d="m0 0 5 2 17 16 9 9 8 7 13 12 12 11 19 19 3 2v2l4 2 7 8 27 27 7 8 14 15 7 8 26 26v1h-13l-12-11-8-7-17-17-7-8-14-14-7-8-19-19-8-7-11-12-8-8-8-7-8-8-8-7-7-7-8-7-8-8-6-8-1-3z" fill="#FDD488"/>
<path transform="translate(1172,60)" d="m0 0h19l10 5 4 7 2 9v11l-4 10-8 9-6 3-4 1-23-1 1 4-7-5-2-5-5-5v-3l1-14 4-10 7-9 8-6z" fill="#12162A"/>
<path transform="translate(1234,261)" d="m0 0h2l-1 10-3 6-26 26-8 7-15 15-8 7-10 10-6 5-4 5-8 7-14 15-67 67-4 1h-7l1-5 8-9h2l2-4 17-17 1-2h2l2-4 57-57 6-7 12-12 8-7 8-8 8-7 8-8 8-7 10-10 8-7z" fill="#FED487"/>
<path transform="translate(1037,205)" d="m0 0h2l2 18 16 2v3l-5 8 1 7 4 7-1 1-13 1-2 1-1 14-4 2-9-7-6 1-6 4h-4l-1-16-17-2v-3l6-7-1-4-9-8 1-2 17-2 4-2 1-15 5 1 4 2h7z" fill="#0B0E29"/>
<path transform="translate(957,274)" d="m0 0 3 3 8 11 9 9 16 9 12 5 12 3h16l16-4 16-8 13-10 6-4 5 1 2 4-2 5-10 9-16 10-14 6-10 3-13 2h-3l-1 6 3-1 1 2-6 4-16 15-10 7-6 4-5-1-12-5v-1l10-1 11-7 11-11 7-6 4-5 1-3-11-1-13-5-18-10-9-7-9-9-7-11v-6h9z" fill="#FEB455"/>
<path transform="translate(1112,280)" d="m0 0h7l8 3 5 5v2h2l1 3v11l4-1-2 5-9 15-9 10-9 6-10 6-13-1-10-4-4-4-1-6 3-8 4-6 10-7 7 1 3-9 4-2 1 4 6 1v-5l-1-2 2-2-4-3 1-9z" fill="#11162B"/>
<path transform="translate(1104,130)" d="m0 0 5 1 11 7 8 8 9 15 7 15 4 13 1 6-10 8-22 22-4 1-2-6-4-15-7-16-3-4 1-2 5 6 2 1v2l3-1-3-5-1-4 5-3 12-2 5-3 1-5-1-8-3-3-1-2h-3l-3-9h-12l-5 3-2 7h-1v-8l1-8-1-4 7-5z" fill="#13172B"/>
<path transform="translate(905,38)" d="m0 0h10l4 2 8 10 9 11-1 4-9 8-5 2h-8v21l-5 3-9 1-1-17-5-10-8-9-6-3-19-1 2-4 5-2 8-3-1-2-5-1-2 2h-9v2l-12 4-5-1v-3l5-5 10-5 11-3h11l7 4 9 10 11 13 3 2 5-1 4-5-1-6-6-4-5-2-3-6v-5z" fill="#F98533"/>
<path transform="translate(1151,206)" d="m0 0 4 2 22 22 5 4-2 4-27 27-8-6-22-22 1-4 23-23z" fill="#0B0E29"/>
<path transform="translate(947,371)" d="m0 0h10l8 3 12 4 7 3-4 3 9 5 13 9 6 7 5 10 7 6v8l-1 6-1-2-6 2 3 6-3 1h-9v-3l4 1 1-3-2-1-1-4-4-3-3-5-12-12h-5v2h-2v-2l-4-2 2-1-1-2-5-1-4-4v-2h-2l-4-5v-2l-3-1-5-6-2-6-3-4v-2h-2z" fill="#12162B"/>
<path transform="translate(896,208)" d="m0 0 5 1 21 21 2 1v2h2l1 3-7 7-7 8-14 14-4-1-11-12-15-15 2-4z" fill="#0B0E29"/>
<path transform="translate(1023,84)" d="m0 0 4 1 11 11 6 7 6 2 12 2 1 2-12 7-11 10h-2l-2 4-7 7-1 2-4-2-17-17-14-11v-3l5-2 9-2 11-12z" fill="#0B0E29"/>
<path transform="translate(1022,336)" d="m0 0 6 1 17 17 13 8 8 4-3 2h-18l-5 5-10 11-5 5-12-13-6-7-4-1-14-1-2-2 10-7 10-8z" fill="#0B0E29"/>
<path transform="translate(895,111)" d="m0 0h9l-17 17-7 8-8 8-8 7-25 25h-2v2l-8 7-11 11-2 4h-2l-1 3-2-1 1-6v-6l4-2 1-2h2l2-4h2l2-4 3-3-1-4 9-4 2-4-9-6-5-4-1-2h-4l1-16h4l11 10 7 4h8l10-7 5-7 1-7 14-4 6-4 3-4h2l1-3z" fill="#0C0E29"/>
<path transform="translate(921,213)" d="m0 0 7 6 6 7 2 1 1-3 2 1 3 7 4 4 2-2 2 18 6 18 1 6-8 1v3h-2l-5-11-5-17-1-7-4 2-8 8-7 8-12 12-3 2-2 3-1-4-3-7v-3l8-7 14-14 7-8 1-4h-2v-2l-4-2-12-12 4-1 8-1z" fill="#FED488"/>
<path transform="translate(841,323)" d="m0 0 8 1 14 10 4 6 3 7 10 2 6 4 3 4v2l-20 1-9 3-6 4-7 8-5-1-2-4 1-7 4-4h2v-4l6-4 1-2v-10h-7l-9 4-3 2-1 9-9 4h-2l-1-15 2-5 12-13z" fill="#148EFB"/>
<path transform="translate(1142,199)" d="m0 0 2 1-13 13-1 8-1 7-5 6 1 4 9 9-1 2-3-1-9 2-5-2-2-1-3 13-6 16-9 14-5 6h-2l1-4-1-3-3 1v-2l-5 3 2-4 7-10 5-11 4-14 2-11v-12h2v-2l4-1 2 1v-2h2v-5h1l1 5 5-2z" fill="#FED68A"/>
<path transform="translate(1078,385)" d="m0 0h5l-1 4-4 6-2 1-1 4-5 6-2 4-9 7-1 2h-2l-1 3-5 5-3 4-1 3 3-1h4l2 2-4 2-5-1-1-1-1 2 9 1 5-4-2 4-1 4h7v1h-8l-2-2-10 2-6-3v-2-1l-3-1-7 3-4-3v-2l-2-1 4-5-2-2h3l1-3h4l2-5 4-4 8-7 16-16 5-3z" fill="#12172C"/>
<path transform="translate(1023,69)" d="m0 0 4 1 13 13 7 6 5 5 10 4 17 5 21 9 5 3 1 3-5 3-4-2-4-3h-6l-1 2h-6l-5-2v-2l-4-1h2v-7l-5 1h-10l-11-2-5-3-14-15-2-2-4 1-9 10-6 7h-7l-1-5 2-3v-3l10-11 6-7z" fill="#FDF7CE"/>
<path transform="translate(1013,34)" d="m0 0 3 2 2 6v10l-6 8-12 13-9 10-9 6-20 6-7 1 2-4 10-10 7-8 9-9 7-8 15-16z" fill="#3CB9FD"/>
<path transform="translate(1071,115)" d="m0 0 7 1 19 8-1 2-9 2-12 6-1 1v20h8l1 5-6 3 1 2-5-2-14-9-7-3-16-4 3-5 14-14 16-12z" fill="#12172B"/>
<path transform="translate(1034,35)" d="m0 0 5 2 37 37 8 9 3 2v2l4 2v2l4 2 2 4-10-2-17-6-9-6-7-7-8-7-8-8-6-8-2-5v-8z" fill="#3BB8FD"/>
<path transform="translate(881,168)" d="m0 0h2l-2 10-5 12-8 11-12 13-16 16-3 2h-12l-4-2 1-5 11-12 28-28 11-9z" fill="#1482F4"/>
<path transform="translate(1010,251)" d="m0 0h1v16l7-3 5-3 5 1 8 6 3-1 1-14h1l1 14 3 1 1-6h1v30l-4-1-10-10-6-7-4 2-7 7-1 3 6 3h8l7-1 1 3-3 6-7 10-4-1-8-11-2-4v-4l-5 3h-4l-2-19v-10l5 2 2 1z" fill="#FEB557"/>
<path transform="translate(1172,60)" d="m0 0h19l10 5 3 4v4h-2v5l-3 4-4-1 2 6v6h-1l-2-7h-1v-5h-2l-4-5-5-2h-7l-4 3h-2l-2 5-1 2v13l3 3 5 2h9l-4 2-6 1v3h-2l1 3-2 1h-6l-7-7 1-8 1-4h-2v-3l-3 3-3 1v-7l3-11 7-9 8-6z" fill="#0B0E29"/>
<path transform="translate(1222,246)" d="m0 0 4 1 1 7-3 9 2 2 3-1v3l-8 7-15 14-7 7-8 7-8 8-5 4-5 2-6 3-3-1 2-5 2-4 1-5 7-8 7-6h2v-2l8-7 4-2 1-3 8-7 14-14 3-4z" fill="#0B0F2A"/>
<path transform="translate(914,166)" d="m0 0h2l1 2v17l2 5 2 1-1 3 1 1h5l2-2 12-3 5-5h2l1-3 1 8-7 16-4 13-2 8-4-2-9-10-18-18-1-2 1-12 4-13 5-1z" fill="#0B0E29"/>
<path transform="translate(1170,171)" d="m0 0 4 1 12 11 7 7 8 7 27 27 2 3-1 5-4 1h-9l-5-3-9-9-7-8-9-10-10-12-5-12z" fill="#1582F4"/>
<path transform="translate(891,367)" d="m0 0 12 2 5 5 1 5h-3l-7-3v10l-2 9-6 9-4 5-8 5-10 1-10-2-8-4-4-5-3-9v-14l4-9 4-4h2v13l-1 7 2 4 1 3-2 1v2h2v2h2v-3l3-1 5 4 7 2 4 4 4-1 1-3 5-2 3-5 1-4v-16l-1-7z" fill="#12162B"/>
<path transform="translate(1185,213)" d="m0 0 6 4 3 3v2h2v2h3l1 3h3v2h2l2 2-1 3-5-3 3 5-1 5-1 4v4l2 1-12 12-7 8-10 13-4 2-2 2v-8l1-3-7 4-3 8h-1l1-13 3-5 13-13 7-8 13-13-2-4-12-12 1-4z" fill="#0B0F2A"/>
<path transform="translate(1211,242)" d="m0 0 5 1 8 6-2 4-7 8-15 15-8 7-5 5h-2v2l-11 9-5 4h-2l4-16 9-12 18-20z" fill="#1582F4"/>
<path transform="translate(834,242)" d="m0 0h5l10 10v2h2l7 8 9 10 10 13 4 11v7l-4-2-17-16-8-8-8-7-15-15-4-6 1-3z" fill="#1582F4"/>
<path transform="translate(1049,23)" d="m0 0h12l2 4 5 5v2l4 2 10 10 8 7 23 23 1 7-5 3-9-5-24-24-7-8-9-9-9-11-3-5z" fill="#FDF4C8"/>
<path transform="translate(929,377)" d="m0 0 5 1 9 7 8 8 7 8 11 12 24 24v1h-13l-12-11-8-7-17-17-7-8-14-14 3-3z" fill="#FDB455"/>
<path transform="translate(1118,375)" d="m0 0h4v2h2l-1 7-57 57-4 1h-7l1-5 8-9h2l2-4 17-17 1-2h2l2-4 11-11 4-2z" fill="#FEB859"/>
<path transform="translate(1062,364)" d="m0 0 5 1 6 1-2 2 1 2-18 7-8 5-9 9-9 11-3 3-5-5-12-13v-2h-2l-4-5-8-3 4-3 9-2 6 2 7 8 5 6 5-5 9-10 6-6h18l2-1z" fill="#F98835"/>
<path transform="translate(985,23)" d="m0 0 12 1 1 1v5l-7 9h-2l-2 4-30 30-7 8-17 17-2-1 7-9 3-4 4-11 3-4v-3l24-24 9-11 3-4z" fill="#FDF8D2"/>
<path transform="translate(871,252)" d="m0 0 10 3 8 4 1-2 6 7 2 2h-2l4 10v3l2-2 8 22 8 15-1 4-1-3h-3l-4-5v-2l-5-1 5 13 2 2-1 4-4-5-8-16-7-21-3-12-18-18z" fill="#FDB053"/>
<path transform="translate(925,145)" d="m0 0 3 2-3 5-1 5v9l3 9 8 2 14 1 7-3 5-5 6-2-6 7-9 10-3 3-2-3h-2l-2 4-6 3-9 2-2 2h-5l-2-4v-1l-2-2-1-8v-15h-2l1 4-3 1-2-3 7-12z" fill="#181124"/>
<path transform="translate(960,383)" d="m0 0 7 1 21 7v2l4 2 16 16 1 8v2h-2l1 3-7 2-7-6-25-25-9-11z" fill="#1582F4"/>
<path transform="translate(1093,387)" d="m0 0 4 1 1 6-9 9-1 2h-2l-2 4-22 22-9 8-7-1-2-1 1-3 3 2 6-1h-4l-4-1 1-5 6-7 3-3h2l2-4 7-6 2-1 2-5h2l2-5 1-3h3l2-2 8-1v-2z" fill="#0A0E2A"/>
<path transform="translate(887,331)" d="m0 0 7 6 4 4h3v2l4 2 7 8 27 27-1 2-5-4-8 1-3 1-26-26-8-7-10-11 1-4h7z" fill="#FED487"/>
<path transform="translate(825,116)" d="m0 0h10l1 3v10l3 4 3 1h7l6-2 1-2h7l2-1v8l-6 7-9 6h-8l-9-6-11-10v-14l1-3z" fill="#F98534"/>
<path transform="translate(1186,150)" d="m0 0h2l6 7 8 7 17 16 12 12 5 10v8l-5-3-10-9-8-7-7-7-8-7-7-7 1-3-4-8z" fill="#FDD285"/>
<path transform="translate(837,200)" d="m0 0v3l-8 8-1 2 3 1-2 4-7 8v4l11 3v2l-3 1 1 9-5 2 2 5 9 10 7 7-2 6-7-3 1-3h2l-7-2-6-8-3-2-4-1-2-5-4-4 1-6-1-5 1-7 3-6 7-10 8-7z" fill="#12172B"/>
<path transform="translate(1228,97)" d="m0 0 2 2 3 4-1 5-1 3 1 2v6h-2v16h-1l-1-17-3-1-5 4-6 11-6 5-9-1-6-7 1-4 12-10 14-10z" fill="#13162A"/>
<path transform="translate(884,223)" d="m0 0h2v5l3-1 1 4 2-2-1-3 6-1 5 3 5 6-1 6-6 5-8-4-1-1-2 2 2 5 2 4v4l4 2 4-2 6-1v3l-8 8-4-1-11-12-10-10 1-3 3-3-3-1-2 1 2-4h2v-3l4-1 1-3z" fill="#13172B"/>
<path transform="translate(869,373)" d="m0 0h7l6 3 3 3 1 7-3 9-7 6-2 1h-6l-6-4-4-5v-11l6-7z" fill="#FEB95A"/>
<path transform="translate(1173,374)" d="m0 0h11l5 3 3 5v12l-3 5-5 3h-8l-6-4-4-5-1-2v-9l4-6z" fill="#FEB454"/>
<path transform="translate(868,73)" d="m0 0 7 1 6 4 4 4 1 3v7l-3 5-5 4-7 1-8-4-4-5-1-2v-9l4-6z" fill="#FEEAAA"/>
<path transform="translate(841,323)" d="m0 0 8 1 12 8-4 1v16h-2l-1-10h-7l-9 4-3 2-1 9-9 4h-2l-1-15 2-5 12-13z" fill="#1582F4"/>
<path transform="translate(1175,73)" d="m0 0h7l6 3 4 5v11l-4 6-5 3h-8l-6-3-4-5v-9l4-7z" fill="#FEECAA"/>
<path transform="translate(1117,294)" d="m0 0 10 5v11l-2 2v-2h-2l3 5 3 3-4 9-7 7-13 8-5-1-11-4-1-2v-6h3l1-2 3 1v2l9-1 8-3 4-1 2-5v-11-4l-2-3v-3l-2-4z" fill="#0A0E29"/>
<path transform="translate(826,101)" d="m0 0 5 4 5 3 12 10 7 6v7l-3 3-3 1h-7l-5-3-2-3v-13l-13 1-2 4-2-1 1-10 1-8 1 4 4-1z" fill="#0C0E29"/>
<path transform="translate(1014,24)" d="m0 0h18v2h2l1 3-1 5-2 5-1 1-1 9 2 7-6 5-1-2-7-1 1-3h-3l1-3v-10l-3-7-3 1-1-4 2-1 1-5z" fill="#12162B"/>
<path transform="translate(874,216)" d="m0 0h2l1 5-4 8-2 5v4l18 18v3l-6-2-10-4-5-1-13-13-1-5 17-17z" fill="#FDD386"/>
<path transform="translate(905,38)" d="m0 0h10l4 2 8 10 9 11-1 4-9 8-2 1h-7l3-2h2l1-5 2-2v-3l-3 2h-4l-3-9-5-3-5-2-3-6v-5z" fill="#FDA044"/>
<path transform="translate(988,236)" d="m0 0 2 3 3 7v2l17 2v17l-1-3-9-3-22-3-9-2 2-4 4-2v-2l10-8z" fill="#FED285"/>
<path transform="translate(1104,130)" d="m0 0 5 1 11 7 8 8 5 8-1 4h-2v8l-1 3h-2l-1-8-3-3-1-2h-3l-3-9h-12l-5 3-2 7h-1v-8l1-8-1-4 7-5z" fill="#0B0E2A"/>
<path transform="translate(1031,326)" d="m0 0h4v3h2v2l4 2 14 14-1 3 4 2 4 9-1 2-4-1-12-7-13-13-4-3v-2l-4-2v-1h-2l-1-4h2v-2z" fill="#FDA445"/>
<path transform="translate(1010,251)" d="m0 0h1v16l2 1v2l-1 14 7 4 2 1h8l7-1 1 3-3 6-7 10-4-1-8-11-2-4v-4l-5 3h-4l-2-19v-10l5 2 2 1z" fill="#FCB256"/>
<path transform="translate(859,155)" d="m0 0 1 3-3 5h-3v6l-7 10-9 9 1 2-8 7-9 9-5 4h-2v-10l4-6 16-16h2v-2l8-7z" fill="#FED88E"/>
<path transform="translate(822,299)" d="m0 0 5 2 10 7 2 1-1 2v1l2 6 2 2-4 5-8 7-6 7-1 4h-2v-4l-3-1-1-3 3-4 2-1 1-5-3 1 2-5z" fill="#12172B"/>
<path transform="translate(1096,125)" d="m0 0 5 2 3 3-2 4-13 7-5 12-3 3-7-1-1-3v-17l5-4 12-5z" fill="#3BB8FD"/>
<path transform="translate(1202,338)" d="m0 0 7 1 6 8 1 3 1 4 4 1 5 4h3l2-4 1 4-4 4 1 2h-2l-1 4 4 7v2l-4-2-11-12-11-8-7-6-1-6 3-5z" fill="#0C0E29"/>
<path transform="translate(890,158)" d="m0 0 4 1v4l2 1v8l-3 12-2 12-7 8-3-3-3-6-1-5-1-2 5-12 5-3-2-10 2-1 1-3 3 1z" fill="#11162B"/>
<path transform="translate(980,382)" d="m0 0h9l10 5v2l3 1 5 7 4 7 4 4v2l4 2 2 2h6l3-1 2-4 3-5 4 1 3-1 1 3-5 4-2 4h-2l-4 8h-2l-1 2-1-1-1 2h-3l-4-6-7-6-4-9-6-7-18-12-4-2z" fill="#12152A"/>
<path transform="translate(1104,146)" d="m0 0h10l4 4 1 3v11l-3 5-4 1h-9l-5-3-1-3v-12l4-5z" fill="#38B4FC"/>
<path transform="translate(1023,69)" d="m0 0 4 1 5 5-2 5-10 8-9 11-4 4h-7l-1-5 2-3v-3l10-11 6-7z" fill="#FDF9F1"/>
<path transform="translate(1131,161)" d="m0 0h2l1 3v22l-5 4-3 1h-16l-4-2-2-7 5-3 12-2 5-3 4-12z" fill="#148DFA"/>
<path transform="translate(953,128)" d="m0 0h10l9 4 4 3 1 3v14l-3 3h-8l-1-1-2-13-16-6 2-5z" fill="#F54221"/>
<path transform="translate(1069,88)" d="m0 0 21 7 8 1 1 3-4 4v3l3 3-4 1-21-8-16-5-8-4 2-1h6l2-3 5 1v2l6 1-2-4z" fill="#12162B"/>
<path transform="translate(1192,202)" d="m0 0 6 1 13 10 11 10 6 5-1 3h-2v2h-9l-5-3-9-9-7-8-4-9z" fill="#148EFB"/>
<path transform="translate(963,354)" d="m0 0 5 1 6 2v2l15 7 14 1 5 2 3 3-1 2-4-1-10 3-9-1-21-8 1-2-3-3v-2l-3-1-1-4z" fill="#FDA546"/>
<path transform="translate(1058,101)" d="m0 0h15l16 6 16 8 1 3-5 3-4-2-4-3h-6l-1 2h-6l-5-2v-2l-4-1h2v-7l-5 1h-10v-2l-3-1h2z" fill="#FDF8D0"/>
<path transform="translate(1023,225)" d="m0 0 6 1 7 7v7l-7 8-6 1-6-4-3-4v-7l7-8z" fill="#FC6F2F"/>
<path transform="translate(1101,305)" d="m0 0h11l4 4 2 6-1 6-4 4-2 1h-9l-5-5v-12z" fill="#F43D21"/>
<path transform="translate(946,304)" d="m0 0h5l2 3 1 14-2 3-13 1-5-3-2-6 1-6 5-4z" fill="#F43F20"/>
<path transform="translate(937,147)" d="m0 0h14l2 2 1 10-2 7-5 1h-9l-3-1-2-7v-7l2-4z" fill="#F43F20"/>
<path transform="translate(1065,189)" d="m0 0h5l2 2v16l-2 4h-6l-9-6-5-6-2-2 2-2-3-1 1-2 9-1z" fill="#FDCF81"/>
<path transform="translate(1080,317)" d="m0 0 5 1 2 18 11 3 6 3-4 3-13-1-10-4-4-4-1-6 3-8z" fill="#F8232D"/>
<path transform="translate(920,160)" d="m0 0 2 4 3 12 5 2 13 2 2 4-5 6-4 1-15-1-3-2v-24z" fill="#F8232D"/>
<path transform="translate(966,316)" d="m0 0 5 2 5 6 1 3v9l-4 4-6 2-15-1-2-1 1-4 11-4 2-4 1-10z" fill="#F8232D"/>
<path transform="translate(1183,236)" d="m0 0 4 2 3 5-12 12-7 8-5 6h-3l-2-8-2-1z" fill="#FED88C"/>
<path transform="translate(978,54)" d="m0 0 3 1-2 4-2 1v3h-2l-2 4-4 3h-3l-4 4v3l-1 2h-3v2l-7 2-7 6-1 3-5 3-7 6 2-4 22-22 7-8 8-8 5-2zm-48 47m-1 1m-1 1m-1 1m-1 1m-1 1m-2 1 2 1-9 9-1 3h-2l-2 4-6 7-7 6-2-3z" fill="#0F1129"/>
<path transform="translate(1227,140)" d="m0 0h2v3h3v5l-2 3-1 3-5 2-10 8 2 4 4 3-5-1-4-4 1-5 1-3-3-2h-3l-4-2-2-2-1-2-4-2h3l2 1h9l11-6 1-1h5z" fill="#13152A"/>
<path transform="translate(1049,23)" d="m0 0h12l2 4 5 5v2l3 1 2 6 6 8-1 3-9-3-9-9-9-11-3-5z" fill="#FDF8EE"/>
<path transform="translate(958,414)" d="m0 0h8l7 3 20 20v1h-13l-12-11-8-7z" fill="#F98935"/>
<path transform="translate(1218,180)" d="m0 0 7 6 8 9 3 7v8l-5-3-10-9-8-7-2-4-1-4 3-2z" fill="#FDAD50"/>
<path transform="translate(864,308)" d="m0 0 4 2 10 9 21 21-1 2-10-10-4 1h-5v2l-4-2-11-10 1-4-2-1h2z" fill="#FEEBA9"/>
<path transform="translate(1008,411)" d="m0 0 7 6 5 5-1 13-1-2-6 2 3 6-3 1h-9v-3l4 1 1-3-2-1-1-4-4-3 1-4 5-1v-3h2l-1-7z" fill="#12172B"/>
<path transform="translate(1064,265)" d="m0 0h5l2 4 2 10-1 5-5 1-12-3-3-3 1-4 4-6z" fill="#FC9F41"/>
<path transform="translate(980,265)" d="m0 0 5 1 10 9 4 3-2 4-12 3h-8l-1-1 1-10z" fill="#FCAA4E"/>
<path transform="translate(810,214)" d="m0 0 3 1 1 2-3 1-1 11v17l3 15 4 1-2 1 1 12-2 2-2 5-1 2-2 10h-1l-1-11v-40l1-27z" fill="#13172B"/>
<path transform="translate(1023,261)" d="m0 0 5 1 6 5-4 8-5-1-9 9-1 2-4-1v-7l2-7-2-1 10-7z" fill="#FDD285"/>
<path transform="translate(1135,165)" d="m0 0 4 3 4 11-4 3 1 1 1 9-5 1-4 4-5 2h-5l-2-4-1 4-7-3-1-3 3-1h6l11-4 2-2 2-11z" fill="#0A0E2A"/>
<path transform="translate(927,280)" d="m0 0h9l5 5v5l-24 8-1-1v-7l7-8z" fill="#F43F20"/>
<path transform="translate(869,373)" d="m0 0h7l6 3 3 3 1 7-3 9-7 6-2 1h-6l-4-2v-2l12-2 1-1v-13l-12-3-1-4z" fill="#FDCE81"/>
<path transform="translate(1112,280)" d="m0 0h7l8 3 6 7 1 5-2 3-6-1-17-8 1-6z" fill="#F9232E"/>
<path transform="translate(909,402)" d="m0 0 7 4 1 2v8l-6 5h-9l-5-3v-5l8-9z" fill="#171124"/>
<path transform="translate(1214,111)" d="m0 0 2 1-2 4-1 3-4 1v6l-5 1v2l7 1 1 4-4 3-9-1-6-7 1-4 12-10 4-3z" fill="#0A0E2A"/>
<path transform="translate(936,411)" d="m0 0h4v2h2v11l-4 5-5 2-2 5-4 1-3-2 1-4-3 2-3-1 7-6 2 1 1-4-1-4 7-6z" fill="#171124"/>
<path transform="translate(874,268)" d="m0 0h2l3 6 3 9 2 5h2l-2 10-2 7h3l1-2 2 5h2v7l-2 1-3-3-5-2-1-5-3-1v-5l5 3-2-10-4-9-4-5z" fill="#10142B"/>
<path transform="translate(919,284)" d="m0 0 2 1-4 5v7l21-7h3v-5l2 1 1 4-2 2-11 3-2 2 1 4v5h-3v-3h-2l-2-4h-1l-1 11-1 3 2 6-3-1-8-15-1-4h3l1-9z" fill="#171124"/>
<path transform="translate(1025,273)" d="m0 0 4 2 13 14-3 1h-3v-2l-7 2h-8l-6-3-1-2 7-8z" fill="#0A0E29"/>
<path transform="translate(904,307)" d="m0 0 5 1 4 5v2h3l1 2 2-1 2 5v2 4h2l5 12v3l-4-2-7-8-6-7-7-14z" fill="#FEA847"/>
<path transform="translate(1110,281)" d="m0 0 1 2-2 6 9 3 10 5h4l1-7 2 3v11l4-1-2 5-9 15-2 1 2-7-5-4v-3h3v-11l-8-4-3-2-7-2-1-3 2-6z" fill="#161125"/>
<path transform="translate(1015,287)" d="m0 0 6 2h8l7-1 1 3-3 6-7 10-4-1-8-11 3-1-1-5h-2z" fill="#FC9B40"/>
<path transform="translate(864,129)" d="m0 0h1v8l-6 7-6 4-4-1-3-4v-2l-2-1-4-5 12-2 3-1 1-2h7z" fill="#F98835"/>
<path transform="translate(986,412)" d="m0 0 7 6 8 8v3l4 2 2 3-1 2 3 1-2 1v2h-10l-2-1h-14v-1l11-1-9-9h3l8 8v-3l3-3-4-3v-2l-4-2v-3-2l-4-5z" fill="#13162A"/>
<path transform="translate(1023,182)" d="m0 0h6l5 4 2 4-5 5-4 5-4-1-7-6-1-5z" fill="#0A0E2A"/>
<path transform="translate(1102,419)" d="m0 0 4 2 9 11 1 3h-26l2-4 9-11z" fill="#F6792D"/>
<path transform="translate(946,419)" d="m0 0 4 2 9 12-1 2h-24l1-4z" fill="#1482F4"/>
<path transform="translate(1062,364)" d="m0 0 5 1 6 1-2 2 1 2-11 4h-13l-5 1-10 9-4 4-2-1 11-13 4-5 3-2h18l2-1z" fill="#FDA244"/>
<path transform="translate(808,123)" d="m0 0h1v41l2 17 1 13 1 3-2 5h2l2-2v10l2 1h-4l-1 2-2-3-2-12-1-13v-47z" fill="#13172B"/>
<path transform="translate(935,37)" d="m0 0h25l-2 5-9 10-4-1-9-10z" fill="#FEE9A7"/>
<path transform="translate(1144,321)" d="m0 0 1 4-1 2 2 1 2 3-2 5-5 8-5 1v2l2 1-4 2-4-2-1 4-4 3-3-1-1-3 5-2v-2l-2-1h5l2-4 3-1v-2h2l3-6-2-2h2l3-9z" fill="#0A0E29"/>
<path transform="translate(1201,231)" d="m0 0 5 2 5-1 6 2h2l-1 4h1 10l2 2-1 6-4-4-8-1v3l-7-1-6 6h-3l-1-7 2-3-1-5z" fill="#12162B"/>
<path transform="translate(1212,289)" d="m0 0h6l-2 4-10 10-8 7-15 15-8 7-7 6v-3l10-10 7-9 9-5 5-6 2-5z" fill="#FEEAA9"/>
<path transform="translate(1091,37)" d="m0 0 24 1-3 5-7 9-5-1-12-12z" fill="#FC6D30"/>
<path transform="translate(822,152)" d="m0 0 5 2 9 7 3 2-2 4-5 3-7 3-4-1z" fill="#F88131"/>
<path transform="translate(1078,227)" d="m0 0 6 2 7 5-1 5-7 6h-8l-1-7 2-10z" fill="#FDAD50"/>
<path transform="translate(1063,379)" d="m0 0 3 1-3 2-5 5-2 4h3v-2l5-1 1-2 15-5h7l1-2 1 4-7 8v-3l1-3-18 4-8 6-19 19-2-1 2-3 5-5 6-7 3-4 3-9 1-2z" fill="#12162B"/>
<path transform="translate(1242,85)" d="m0 0h2v126h-1l-1-30v-65l-1-11-1-4h-3l1-4 1-2h2z" fill="#0A0E2A"/>
<path transform="translate(1045,44)" d="m0 0 7 6 24 24 8 9 3 2v2l4 2v2l4 2 2 4-10-2-5-2v-2l-3-3-2-7-11-14-21-21z" fill="#148AF9"/>
<path transform="translate(838,133)" d="m0 0 4 2 6 9 3 5-1 1h-8l-9-6-9-8 2-1 6 1z" fill="#FD7130"/>
<path transform="translate(1009,83)" d="m0 0 7 2 1 4-3 5-4 6-3 3h-7l-1-5 2-3v-3z" fill="#FDF9D1"/>
<path transform="translate(833,180)" d="m0 0v3l-3 4 2 6-2 4-6 7-7 6h-2v-10l4-6z" fill="#FDAE54"/>
<path transform="translate(1038,64)" d="m0 0 6 2 8 8 8 7 6 5-2 1h-7l-13-10-5-3-3-5v-2l2-1z" fill="#12172B"/>
<path transform="translate(1072,116)" d="m0 0h6l19 8-1 2-9 2-13 5-2-4v-2h2l2-5 1-3-6-1z" fill="#0C102A"/>
<path transform="translate(1241,214)" d="m0 0h1l1 14h1v150h-1l-1-39v-86l-1-4 1-10-1-5-1-13z" fill="#0A0E2A"/>
<path transform="translate(1225,154)" d="m0 0h4v19l-2 1-12-6-2-4z" fill="#F8272C"/>
<path transform="translate(985,366)" d="m0 0 18 1 5 2 3 3-1 2-4-1-10 3-9-1-6-2-1-4 4-2z" fill="#FCA042"/>
<path transform="translate(1227,299)" d="m0 0h2l1 3v12l-1 7-4-1-9-9 1-5z" fill="#F98434"/>
<path transform="translate(847,338)" d="m0 0h7l1 1v10l-5 5-5 1v-2l-2-1 1-2-2-1v-6l-4 1-1 2-1-3 8-4z" fill="#161125"/>
<path transform="translate(881,114)" d="m0 0h8v3l-5 6-6 3h-9l-2-11z" fill="#F98634"/>
<path transform="translate(1095,137)" d="m0 0 2 1 1 8-1 3v10h-2l-1 3-4-2 1-3v-1l-1-2-4 1-1-7 3-7 4-3z" fill="#12172B"/>
<path transform="translate(1070,422)" d="m0 0 3 4 1 5-4 6-4 4-4 1h-7l1-5 8-9h2l2-4z" fill="#F98734"/>
<path transform="translate(1096,125)" d="m0 0 4 2-10 1v6l-9-2v3l5 3v2l-9 2-1 11 5 2-4 1-3-1-1-3v-17l5-4 12-5z" fill="#148CFA"/>
<path transform="translate(822,299)" d="m0 0 5 2 9 7-2 4-8 8-4 1z" fill="#158DF9"/>
<path transform="translate(1183,200)" d="m0 0 7 6 12 13 7 8 4 4 3 1 11 1-4 2-4 1v-2l-3 1-5-2-6-1v-3l-7-2 1-3h-3l1-4-5-6v-2l-4-2-5-8z" fill="#10152B"/>
<path transform="translate(823,339)" d="m0 0 10 1 2-1v2l2 1h-3v12l-9 4h-2l-1-15z" fill="#148DFA"/>
<path transform="translate(1226,339)" d="m0 0h3l1 3v17l-4 1-9-8 1-5 5-5z" fill="#F88132"/>
<path transform="translate(943,327)" d="m0 0 3 1v3l9 2h5l-2 2-7 2-1 3 17 1 8-2-1 2-6 2-13 1 2 3-4 1-15-10 4-1h3v-2l-5-5v-2z" fill="#171124"/>
<path transform="translate(1048,198)" d="m0 0 3 1 6 7 7 4 6 1v3l-10 1h-11l-1-1z" fill="#10142A"/>
<path transform="translate(1053,134)" d="m0 0 2 2 1 12-7 1h-7l-6-2 3-5 5-3 4-2z" fill="#0B0F2A"/>
<path transform="translate(1043,251)" d="m0 0h11l5 1-3 3-1 3h-7v2h10v1l-12 1v7l-5-2v-15z" fill="#FED487"/>
<path transform="translate(891,367)" d="m0 0 12 2 5 5 1 5h-3l-7-3v10l-1 6h-1l-1-19h-3l1 16-2 2-1-16-1-7z" fill="#12172B"/>
<path transform="translate(992,326)" d="m0 0 3 1 1 10h2l1 5-3 5-8 7-5 2 4-8h-2l2-5h2l2-5 1-7-3-2v-2z" fill="#13172B"/>
<path transform="translate(977,194)" d="m0 0 4 2 9 2 2 1v2l3 1-10 7-7 1-1-2z" fill="#FDD285"/>
<path transform="translate(1151,228)" d="m0 0 5 3 2 2v6l-4 5h-5l-6-7 1-4 5-4z" fill="#FC983E"/>
<path transform="translate(966,230)" d="m0 0 7 1 1 1v9l-3 3h-5l-8-7 1-4z" fill="#EE7821"/>
<path transform="translate(1e3 198)" d="m0 0h2l-1 15h-17l1-5 10-7z" fill="#0B0E29"/>
<path transform="translate(977,189)" d="m0 0 8 1 15 4 3 2-3 1v2l-3 2h-5v-2l-11-2-3 1z" fill="#FEE8A6"/>
<path transform="translate(866,340)" d="m0 0 2 3 2 4 10 2 6 4 3 4v2h-18v-1l5-1-4-2-5-7h-1l-1-6z" fill="#1582F4"/>
<path transform="translate(898,229)" d="m0 0 5 1 4 4-1 6-6 5-4-2-4-5 1-4z" fill="#F98834"/>
<path transform="translate(1076,319)" d="m0 0v3l-3 8 1 8-3-2-2 1-3-1-1 3-3 1-4-2v-3l-3-1 5-6 7 1 1-2-2-1 6 1 2-6z" fill="#13162A"/>
<path transform="translate(952,313)" d="m0 0 2 3-1 7-7 2h-7l-5-3-1-6 3-1 4 2h7l2-2h3z" fill="#FD6C30"/>
<path transform="translate(1045,88)" d="m0 0 7 6 10 4 8 2v1l-12 1v3 1h-8l-6-2 3-1-1-11z" fill="#FDE6A4"/>
<path transform="translate(893,373)" d="m0 0h3l1 2v20l-6 9-4 2-2-2 5-9 1-4h2z" fill="#161125"/>
<path transform="translate(1023,107)" d="m0 0h5l4 4v6l-5 5-4-1-5-7 1-4z" fill="#FCAD53"/>
<path transform="translate(978,54)" d="m0 0 3 1-2 4-2 1v3h-2l-2 4-4 3h-3l-8 7h-4l4-6 12-12 5-2z" fill="#12172B"/>
<path transform="translate(1211,404)" d="m0 0 2 3-1 3h-2l-1 4h-2l-2 4-3 2h-3l-1 2-6 3-4-1 2-5 9-5h2l2-4 6-1z" fill="#FD7531"/>
<path transform="translate(920,261)" d="m0 0 2 3-2 4-2 3-1 3-5 2-3 5v3l-2 1-2 3-3-8 1-5 4-3h4l1-3 7-6z" fill="#13162A"/>
<path transform="translate(936,30)" d="m0 0 6 1 5 4 4 1v-3l7-2h4l1 7-3 1v-2h-25l-1 2-1-4 1-4z" fill="#131529"/>
<path transform="translate(1019,47)" d="m0 0 1 2 4-2 4 1 2 1 2 7-6 5-1-2-7-1 1-3h-3l2-7z" fill="#12172B"/>
<path transform="translate(980,382)" d="m0 0h9l10 5v2l3 1 1 5h-6l-14-9-4-2z" fill="#171225"/>
<path transform="translate(1168,379)" d="m0 0 2 3 2 9 2 6 12 2v2l-2 1h-8l-6-4-4-5-1-2v-9z" fill="#FDCA7B"/>
<path transform="translate(1140,325)" d="m0 0 3 1-2 2-2 1v3 3l-1 3-4 1v2l-4 3v3l-6-1v2l-5 2-8 6-3-1 11-8 10-9 9-10z" fill="#121228"/>
<path transform="translate(980,265)" d="m0 0 5 1 8 7-2 5h-8l-5-4 1-8z" fill="#FD9F43"/>
<path transform="translate(1120,211)" d="m0 0h4l-1 8-8 7-3-1-1-5v-7l5-1z" fill="#0C0E29"/>
<path transform="translate(816,288)" d="m0 0 2 1-1 2 5 1 1 3-2 2 1 4v12l-4-5h-1l-2 1-2-19h3z" fill="#12172B"/>
<path transform="translate(1024,352)" d="m0 0 4 1 4 4-1 5-4 5-5-2-3-6 2-5z" fill="#FC9942"/>
<path transform="translate(1131,161)" d="m0 0h2l1 3v22h-1l-1-8-3 3-5-1v-2l-3-1 5-3 4-12z" fill="#1582F4"/>
<path transform="translate(896,208)" d="m0 0 2 1-8 8-1 5-1 2-4-1-1 3-4 3h-2v3l-2 2h3l2 2-3 3h-2v2l-4-2-2-4z" fill="#100F27"/>
<path transform="translate(965,168)" d="m0 0 2 1-12 12-5 7-3-3h-2l-2 4h-3l4-5-1-3-4-1v-2h10l7-3 5-5z" fill="#171225"/>
<path transform="translate(987,389)" d="m0 0 5 2 11 8 7 9 1 5-6-4-15-15-2-1z" fill="#0B0F2A"/>
<path transform="translate(1017,230)" d="m0 0 1 2 5 2 3 5-3 5-4-1 2 4-4-2-3-4v-7z" fill="#F43F20"/>
<path transform="translate(947,402)" d="m0 0 5 1 10 6 8 5 1 2-7-1h-7l-11-11z" fill="#FEA847"/>
<path transform="translate(954,123)" d="m0 0 2 1-2 2 8 1v1l-9 1-4 2-2 4 11 3 6 3 2 13 8 1-4 3-4 1v-2l-3-3-1-12-17-6v-7z" fill="#151226"/>
<path transform="translate(1085,407)" d="m0 0 2 1v2l-4 2-1 6-4 8-4 4-2-4-2-2 3-5z" fill="#FEA848"/>
<path transform="translate(920,390)" d="m0 0 4 2v2l4 2 2 4 4 2 3 4v2l-4 1v-2l-4-2-8-7-3-3v-2h2z" fill="#161125"/>
<path transform="translate(1e3 393)" d="m0 0 4 4 4 7 4 4v7l4 2-1 3-7-6-4-9-6-7-3-3 3-1 2 1z" fill="#12172B"/>
<path transform="translate(1163,144)" d="m0 0 4 2 17 17 8 7 5 6h-3l-4-3v-2l-4-2-12-11-11-13z" fill="#13162B"/>
<path transform="translate(1069,270)" d="m0 0h1v5h2l1 8-3 2-12-2v-2l4-1v-3l6-4z" fill="#FDAD50"/>
<path transform="translate(1102,419)" d="m0 0 4 2 5 7h-2l-1 3h-2l-1 2h-3l-2-4-1-3-6 5 2-4z" fill="#ED721D"/>
<path transform="translate(845,392)" d="m0 0 3 1 4 5 5 5 1 5-5 1-5-3-3-7 1-1z" fill="#171124"/>
<path transform="translate(821,152)" d="m0 0h1v20h5v2l2 1-6 7-4 4h-2l-1 2 1-9 2-3-1-5h2v-11z" fill="#141529"/>
<path transform="translate(1023,182)" d="m0 0h6l5 4 2 4-5 5-3 2 1-8-5-2-8 2-1 2 1-4z" fill="#12162B"/>
<path transform="translate(1091,37)" d="m0 0 19 1v2l-11 5-2 3-9-9z" fill="#F53823"/>
<path transform="translate(1108,291)" d="m0 0 9 2v2l-2 1 3 4-1 3 3 5-1 5v7l-3 3 1-8-2-9-5-4-1-5 2-2-4-3z" fill="#13172A"/>
<path transform="translate(1087,379)" d="m0 0 2 1-1 4-6 7v-3l1-3-18 4-5 3-2-1 1-2 5-1 1-2 15-5h7z" fill="#0A0E2A"/>
<path transform="translate(823,270)" d="m0 0 5 2 18 18 8 7 2 3-4-2-9-7-3-3-8-4-5-9z" fill="#FEE49F"/>
<path transform="translate(1007,39)" d="m0 0 2 1-9 9-2 4-12 12-6 7-8 7-4 5-2-1 9-10 8-8 7-8 15-16z" fill="#148AF8"/>
<path transform="translate(818,231)" d="m0 0h7l8 2v2l-3 1 1 9-8-4-1-4-4-4z" fill="#171125"/>
<path transform="translate(895,408)" d="m0 0 3 1-2 4-1 4-2 3h-7l-2-5 2-4z" fill="#1490FC"/>
<path transform="translate(890,158)" d="m0 0 4 1v4l2 1v8l-2 3v-7h-4l-3 4-3-5v-5h2l1-3 3 1z" fill="#13172B"/>
<path transform="translate(881,297)" d="m0 0 2 2-1 6h3l1-2 2 5h2v7l-2 1-3-3-5-2-1-5-3-1v-5l5 3z" fill="#12172B"/>
<path transform="translate(1192,312)" d="m0 0m-1 1 1 3-9 9-8 7-7 6v-3l10-10 7-9z" fill="#FEE5A1"/>
<path transform="translate(917,62)" d="m0 0 1 2 7-2 1 4-3 3-1 3-5 2h-4l-1-6z" fill="#F98A35"/>
<path transform="translate(1151,224)" d="m0 0 4 1 5 3-2 1 2 4 1-4h2l-1 7-2 1-2 4-1-2v-6l-5-4-6 3-2 2v5l-3-3 5-9 3-1z" fill="#151427"/>
<path transform="translate(979,132)" d="m0 0 5 2h2l2 4-7 5h-3v10l-2 1v-16l-2-5z" fill="#13152A"/>
<path transform="translate(970,398)" d="m0 0 9 6 6 7-4 1v2h-2v-2l-4-2 2-1-1-2-5-1-2-2z" fill="#0E122A"/>
<path transform="translate(917,169)" d="m0 0h1l1 19 10 2h11l-3 2-9 2-2 2h-5l-2-4v-1l-2-2-1-8z" fill="#171124"/>
<path transform="translate(961,308)" d="m0 0 6 4 8 8-1 2-4-4h-4l-1 10-3 5-2-1-3-4 4 1 2-7v-6l-3-2v-5z" fill="#171225"/>
<path transform="translate(1072,134)" d="m0 0h1l1 21 6 1-3 2-4-1-2-6-2 7h-2l1-8-3-5h2v-2h2l1-2 1 1z" fill="#0A0E2A"/>
<path transform="translate(833,415)" d="m0 0 14 12-1 2-7-5-3-1v4l-1 2-5-3-2-5h3l-1-3h2z" fill="#0A0E2A"/>
<path transform="translate(1230,99)" d="m0 0 3 4-1 5-1 3 1 2v6h-2l-1-4-3-1 2-3-4-4 2-4h2z" fill="#0A0E2A"/>
<path transform="translate(1209,237)" d="m0 0 1 2h7l2-1h10l2 2-1 6-4-4-8-1v3l-7-1-6 5 2-4z" fill="#0A0E2A"/>
<path transform="translate(918,287)" d="m0 0 2 4v2l4-1v-5h5l2 6-12 5-3-1v-7z" fill="#F9232E"/>
<path transform="translate(1181,203)" d="m0 0 3 1v2l4 2 7 8 3 5-4 1v-2l-3-1-7-8-3-6z" fill="#171124"/>
<path transform="translate(869,359)" d="m0 0h20v1l-11 1 1 2-7 3h-5l-3-6z" fill="#0F142B"/>
<path transform="translate(1210,112)" d="m0 0 2 1-6 6-1 2-9 5 1 5 4 3h8 3l-4 3-9-1-6-7 1-4 12-10z" fill="#161225"/>
<path transform="translate(1085,31)" d="m0 0h6l1 4 4 1 20 1-1 4-1-2-23-1-4 1-3-2v-5z" fill="#171124"/>
<path transform="translate(1045,334)" d="m0 0 6 1 4 4 1 5 3 6-4-2-11-11z" fill="#13162A"/>
<path transform="translate(1119,443)" d="m0 0 6 1h1l7 1v1l16 1v1l-31 2v-3h4l-3-2z" fill="#15192C"/>
<path transform="translate(874,268)" d="m0 0h2l3 6 1 7-3 2-1 2-5-6z" fill="#13162A"/>
<path transform="translate(914,116)" d="m0 0 2 3-3 1-2 4-6 7-7 6-2-3z" fill="#13162A"/>
<path transform="translate(1011,429)" d="m0 0 3 1-2 5 3 6-3 1h-9v-3l4 1 1-3-2-1v-2l2-1-1-3 4 1z" fill="#133766"/>
<path transform="translate(1036,388)" d="m0 0h2l-2 5-9 10-2 2-5-5-1-2 3-1 3 1 6-4 1-3 4-1z" fill="#FC9F44"/>
<path transform="translate(1172,110)" d="m0 0 4 2h12l5-1-1 2-7 2-23-1 1 4-4-3 1-3 10-1z" fill="#171124"/>
<path transform="translate(905,254)" d="m0 0 3 1-6 7-3 3-4-1-3-5 6-1 3-3z" fill="#171124"/>
<path transform="translate(1015,175)" d="m0 0 4 1-7 10-8-1 1-3h2l1-3z" fill="#13172A"/>
<path transform="translate(1102,299)" d="m0 0 2 4h8l5 5-1 3-2-4-2-1h-11l-3 3-1 12h-1v-13l4-8z" fill="#171124"/>
<path transform="translate(1133,156)" d="m0 0 3 3 6 12-1 2-2-2v-3l-3-1v10l-2 2-1-18-3 1v-4z" fill="#131529"/>
<path transform="translate(935,37)" d="m0 0h25l-1 2h-16l-1 5 1 4-5-5-3-4z" fill="#FCC06C"/>
<path transform="translate(1222,334)" d="m0 0 2 3 5 1-5 4-3 1-2 4-1 5 1 2-3 1-1-7-4-4 1-2 4 3 5-6z" fill="#171125"/>
<path transform="translate(996,164)" d="m0 0 5 1-2 1v2l-8 3-11 6v-4l13-8z" fill="#12172B"/>
<path transform="translate(1089,433)" d="m0 0 1 2h26l1-2 3 2v2l-31-1-1 3-5 2-2-2-1-2 5-2h2z" fill="#161326"/>
<path transform="translate(953,128)" d="m0 0h7v3l-3 3h-2l-1 2-7-1 2-5z" fill="#FC652F"/>
<path transform="translate(1019,26)" d="m0 0h8l4 5v3l2 1h-3v-2l-9-2-3 1-2 2 1-5z" fill="#0A0E2A"/>
<path transform="translate(1100,283)" d="m0 0 2 4-3 6-5 2-4 7h-5l6-7z" fill="#151327"/>
<path transform="translate(1183,200)" d="m0 0 7 6 12 13 2 4-3-1-3-4-5-3-1-3-4-2-5-8z" fill="#0F132A"/>
<path transform="translate(1119,169)" d="m0 0h5l1 4-2 4-9 2-3-2h5l-1-3z" fill="#12172B"/>
<path transform="translate(1019,64)" d="m0 0 4 3h3v2l-10 6-3-3 1-5 5-1z" fill="#12172B"/>
<path transform="translate(852,368)" d="m0 0h2v10l-3 3-4-2v-6z" fill="#161124"/>
<path transform="translate(1089,336)" d="m0 0h15l8 1-5 4-5 1-6-3-7-2z" fill="#181124"/>
<path transform="translate(970,59)" d="m0 0h2l-2 4h-2l-2 4-4 6-5 5-3-1 4-6z" fill="#15162A"/>
<path transform="translate(892,427)" d="m0 0 6 1 1 3h2l-1 2-10 1-4-2z" fill="#181124"/>
<path transform="translate(1097,321)" d="m0 0 5 4h9l5-2v2l-8 4-9 2-4-1 1-2 3-1v-2h-2z" fill="#161327"/>
<path transform="translate(909,402)" d="m0 0 7 4v2h-12l-3 3-2 5 2 3-4-1v-5l8-9z" fill="#0B0F2A"/>
<path transform="translate(895,420)" d="m0 0 4 5 2 3v3h-2l-3-3-6 1-4 4-2-1z" fill="#0C0F29"/>
<path transform="translate(997,37)" d="m0 0 3 1-2 4-10 10-2-1 1-2-2-1 4-1v-3z" fill="#12172B"/>
<path transform="translate(1082,314)" d="m0 0h5l1 1v14l1 7h-2l-1-2-2-16h-6z" fill="#181124"/>
<path transform="translate(1225,376)" d="m0 0 4 2v11l-3 10-3 1 3-15z" fill="#F77D2E"/>
<path transform="translate(1144,338)" d="m0 0 1 3 2-1-1 4-4 6-3 1-1-3-2-1v-2h2l1-2 2 1 2-5z" fill="#161226"/>
<path transform="translate(956,31)" d="m0 0h6l1 7-3 1v-2l-9-1v-3z" fill="#12162B"/>
<path transform="translate(918,245)" d="m0 0 4 1-4 2 2 2-4 3h-2l-5 4-8 8-2-1z" fill="#FCBC65"/>
<path transform="translate(1063,381)" d="m0 0 4 2-1 4-4 2h-3v2h-3l2-7z" fill="#161225"/>
<path transform="translate(905,345)" d="m0 0 7 6 4 2 3 3v2h2l4 5-1 3-19-19z" fill="#161326"/>
<path transform="translate(1029,276)" d="m0 0 13 13-3 1h-3v-2l-7 1 3-3-2-7z" fill="#141529"/>
<path transform="translate(1207,232)" d="m0 0 7 1 5 1-1 4-6 2-4-2v-3l-2-1z" fill="#171124"/>
<path transform="translate(1048,198)" d="m0 0 3 1 6 7 7 4 6 1v2l-9-1-6-3v-2l-4-1-1-4-2-1z" fill="#171225"/>
<path transform="translate(874,141)" d="m0 0 2 2-7 8-5 4-4-1 10-10z" fill="#FDCE7F"/>
<path transform="translate(979,174)" d="m0 0 2 1-3 5-4 1-4 5-3 4-1 3-3-1 2-4 7-8z" fill="#101229"/>
<path transform="translate(1140,325)" d="m0 0 3 1-2 2-2 1v3 3l-1 3-4 1-1-2-4 2 6-7z" fill="#12142A"/>
<path transform="translate(1222,218)" d="m0 0 8 2 3 6-1 5-4 2 1-6-7-8z" fill="#0B102A"/>
<path transform="translate(1163,193)" d="m0 0 5 2 2 7-2 2-5-4-1-6z" fill="#0B0E29"/>
<path transform="translate(1227,140)" d="m0 0h2v3h3v5l-4 2-1-2-4-1v-4l4-1z" fill="#0A0E2A"/>
<path transform="translate(912,429)" d="m0 0 5 1-1 4-3 1h-8v-3h3v-2z" fill="#148CFA"/>
<path transform="translate(1174,314)" d="m0 0 3 1-10 10-3 1v-2h2v-2l-3-1 2-3 7-2z" fill="#171225"/>
<path transform="translate(890,167)" d="m0 0 4 1v7l-3 3-3-1v-7z" fill="#0A0E2A"/>
<path transform="translate(936,281)" d="m0 0 3 1 2 3v5l-9 2 2-6 3-3z" fill="#F8232D"/>
<path transform="translate(955,203)" d="m0 0 3 1v3l2 1-2 3h-2l-3 6-2-4z" fill="#10142A"/>
<path transform="translate(1026,85)" d="m0 0 7 6 11 12-1 2-4-2-2-4-5-5v-2h-2l-4-5z" fill="#13162A"/>
<path transform="translate(1136,37)" d="m0 0h10l7 1-1 5 3-1 1 3-5 5h-1v-10l-14-2z" fill="#161327"/>
<path transform="translate(810,389)" d="m0 0 3 3 1 8-1 5h-2l-2-7z" fill="#1B1B2D"/>
<path transform="translate(1218,208)" d="m0 0 6 2 3 5 1 3-2 2-4-4v-2h-2z" fill="#161326"/>
<path transform="translate(1048,197)" d="m0 0 6 1 10 11-2 1-8-6-4-5z" fill="#F9933F"/>
<path transform="translate(1099,173)" d="m0 0h2l1 2h5l2 1v4l-6 2-2-4-3-2z" fill="#12172B"/>
<path transform="translate(1121,155)" d="m0 0 3 3 1 5-4 2-4 4 2-13z" fill="#12172B"/>
<path transform="translate(1058,392)" d="m0 0m-1 1m-1 1m-1 1m-1 1m-2 1 2 1-16 16-2-1 2-3 5-5z" fill="#0F132B"/>
<path transform="translate(847,338)" d="m0 0h7l1 1v6h-2l-1-2h-3l-6-2 1-2z" fill="#0B0E29"/>
<path transform="translate(934,307)" d="m0 0 2 1-3 4 1 9-2 4-5-5 1-3h2l2-8z" fill="#131429"/>
<path transform="translate(1025,273)" d="m0 0 2 1-9 9v4l11 2v1h-8l-6-3-1-2 7-8z" fill="#131227"/>
<path transform="translate(965,168)" d="m0 0 2 1-10 10-5 2-3-1v-2l7-3 5-5z" fill="#13162A"/>
<path transform="translate(1062,364)" d="m0 0 5 1 6 1-2 2 1 2-5 2h-3l-1-5 2-1z" fill="#F9963D"/>
<path transform="translate(882,340)" d="m0 0 12 12 7 6h-3l-7-5v-2h-2l-5-7h-3z" fill="#161326"/>
<path transform="translate(1156,234)" d="m0 0h1v7l-3 3h-5v-4h2v-2l4-2z" fill="#FDB357"/>
<path transform="translate(893,225)" d="m0 0 5 1 4 2-4 2-3 1-2 4-1-3v-3l-1-3z" fill="#141528"/>
<path transform="translate(1215,36)" d="m0 0 8 6 9 10-3 1-11-12-3-3z" fill="#2B2830"/>
<path transform="translate(1107,88)" d="m0 0 7 6 12 12h-3l-11-10-5-6z" fill="#141629"/>
<path transform="translate(1159,50)" d="m0 0 3 1-3 5-9 8v-3l7-9z" fill="#F53B22"/>
<path transform="translate(1024,103)" d="m0 0 4 2v2l-7 2-4 5-1-7 4-3 4 1z" fill="#141428"/>
<path transform="translate(1161,356)" d="m0 0v3l-1 1 7 1-2 2-9 4 1-7z" fill="#161226"/>
<path transform="translate(1078,341)" d="m0 0 9 2 13 1-3 3-4 3-2-1 1-3-9-2-5-2z" fill="#171124"/>
<path transform="translate(943,327)" d="m0 0 3 1v3l6 2-5 4-6-5-1-4z" fill="#12172B"/>
<path transform="translate(1103,181)" d="m0 0 2 3 4 8h-4l-2-2-4-5z" fill="#0D122A"/>
<path transform="translate(986,412)" d="m0 0 7 6 7 7-1 2-4-3-5-5-5-6z" fill="#0F132B"/>
<path transform="translate(1034,75)" d="m0 0 9 6 1-2 3 4h-2l-1 3-6-4-5-6z" fill="#12172B"/>
<path transform="translate(1e3 267)" d="m0 0 2 4v8l-6 3 1-4-3-3 4 1z" fill="#14162A"/>
<path transform="translate(1085,31)" d="m0 0h6l1 4-5 1v2l-3-1v-5z" fill="#13182C"/>
<path transform="translate(1109,428)" d="m0 0 4 2 2 4h-12l3-3z" fill="#FA8B36"/>
<path transform="translate(1020,299)" d="m0 0 5 2h4l-1 4-1 2-4-1-3-4z" fill="#FBA84D"/>
<path transform="translate(1124,237)" d="m0 0 4 2 4 3v2h4l3 4-1 3-7-6-7-7z" fill="#151226"/>
<path transform="translate(974,232)" d="m0 0 4 4-2 1-1 5-2 4-7-1v-1l6-2 1-1z" fill="#141529"/>
<path transform="translate(896,208)" d="m0 0 2 1-8 8-1 5-2 2v-2l-3-1 6-7z" fill="#101229"/>
<path transform="translate(1e3 173)" d="m0 0 4 1-1 4-5 1-4 1-1-4h3v-2z" fill="#13182C"/>
<path transform="translate(916,24)" d="m0 0h15l2 2-6 3-5-2v-1l-6-1z" fill="#12172B"/>
<path transform="translate(1019,417)" d="m0 0 3 2 5 1-1 4-1 2h-3l-3-5z" fill="#171124"/>
<path transform="translate(1174,259)" d="m0 0 3 2-10 9-6 5 2-5 5-5z" fill="#111228"/>
<path transform="translate(927,296)" d="m0 0 3 3v7h-3v-3h-2l-1-5z" fill="#13182C"/>
<path transform="translate(872,234)" d="m0 0h3 3l2 2-3 3h-2v2l-4-2v-4z" fill="#0B0E29"/>
<path transform="translate(921,191)" d="m0 0 12 1-4 2-3 2h-5l-2-4z" fill="#13182C"/>
<path transform="translate(1166,95)" d="m0 0 6 4 11 2v1l-11 1-6-4-1-3z" fill="#151327"/>
<path transform="translate(1133,55)" d="m0 0 1 2 1 5 5 6h4l-2 4-4-1-6-10v-5z" fill="#171124"/>
<path transform="translate(928,402)" d="m0 0h6l3 4v2l-4 1v-2l-4-2z" fill="#151428"/>
<path transform="translate(857,383)" d="m0 0h1l1 10 1 4h-2v3h-2v-2h-2l-1-3h3z" fill="#0E1029"/>
<path transform="translate(822,240)" d="m0 0 6 2 2 3-5 1v-3l-4 2h-5v-2z" fill="#0A0E2A"/>
<path transform="translate(1209,237)" d="m0 0 1 2 6 1 2 4-7-1-6 5 2-4z" fill="#0D122A"/>
<path transform="translate(1238,73)" d="m0 0 2 1 1 7v8l-3-3v-6l-1-4zm3 2 1 4z" fill="#0A0E2A"/>
<path transform="translate(1050,376)" d="m0 0 3 1-8 6-3 3h-2l2-5 3-3z" fill="#FBA042"/>
<path transform="translate(920,259)" d="m0 0 4 1-4 1-1 3h-2l-2 4-4 4-3-1z" fill="#101028"/>
<path transform="translate(965,116)" d="m0 0 4 1-10 5-6 2 2-4z" fill="#FEF4CA"/>
<path transform="translate(892,104)" d="m0 0 2 2v3l1 3-5 4-1-1-7-1v-1l11-1v-2l-4-2z" fill="#141429"/>
<path transform="translate(1114,47)" d="m0 0 1 2-1 8-1 1h-5v-5l5-2z" fill="#13182C"/>
<path transform="translate(935,39)" d="m0 0 4 4 7 8-1 2-3-1-6-8z" fill="#151427"/>
<path transform="translate(970,398)" d="m0 0 4 3v2l2 1v2l-4 1-3-3z" fill="#161226"/>
<path transform="translate(1036,376)" d="m0 0 3 1-6 7-4 4-2-1z" fill="#FA993D"/>
<path transform="translate(1055,361)" d="m0 0 6 2 5 3-3 2h-8l1-2h2l-2-2z" fill="#141529"/>
<path transform="translate(869,339)" d="m0 0 5 2 5 6-9-2z" fill="#161225"/>
<path transform="translate(1081,155)" d="m0 0 2 1v4l-4 2-4-1v-3z" fill="#13182C"/>
<path transform="translate(997,128)" d="m0 0 5 3 7 7-3 2-7-8z" fill="#13172B"/>
<path transform="translate(881,114)" d="m0 0h8v3l-3 3v-2l-10-2v-1z" fill="#EF671E"/>
<path transform="translate(822,72)" d="m0 0h2l-1 10-3 4-1-9 2-1z" fill="#0C0E29"/>
<path transform="translate(1074,231)" d="m0 0h1v14l-4 2-3-4h4z" fill="#161326"/>
<path transform="translate(898,239)" d="m0 0h7l-2 4-5 2-1-5z" fill="#FEB45A"/>
<path transform="translate(964,144)" d="m0 0h1l1 10 8 1-4 3-4 1v-2l-3-3z" fill="#181124"/>
<path transform="translate(1146,94)" d="m0 0h3l1 6-2 1-6-4v-2z" fill="#F43D21"/>
<path transform="translate(965,84)" d="m0 0v3l-4 4 1 4-7 1 2-4z" fill="#1487F7"/>
<path transform="translate(1229,379)" d="m0 0h2v5l2 1h-2v7l-4 3z" fill="#100F27"/>
<path transform="translate(860,285)" d="m0 0 7 6 8 7-2 2-13-13z" fill="#11152B"/>
<path transform="translate(1057,212)" d="m0 0h11l2 2-17 1 1-2z" fill="#12172B"/>
<path transform="translate(1e3 198)" d="m0 0h2l-1 15-2-1v-9h-3l-1-2z" fill="#141428"/>
<path transform="translate(1031,106)" d="m0 0 4 1v9h-3l-2-6-2-3z" fill="#141528"/>
<path transform="translate(964,70)" d="m0 0m-1 1m-1 1m-1 1m-1 1 3 2-2 3h-3v2l-4 1v-4l5-3z" fill="#0D112A"/>
<path transform="translate(834,419)" d="m0 0 6 2 7 6-1 2-7-5-5-2z" fill="#0F1028"/>
<path transform="translate(865,412)" d="m0 0h13v2l-9 1-6-1z" fill="#0C102A"/>
<path transform="translate(947,340)" d="m0 0 8 4 2 3-4 1-6-4z" fill="#13172B"/>
<path transform="translate(1097,183)" d="m0 0 9 9v5h-2l-6-11z" fill="#171124"/>
<path transform="translate(1214,160)" d="m0 0 4 1-4 4 6 6-5-1-4-4 1-5z" fill="#171124"/>
<path transform="translate(1169,350)" d="m0 0 2 1-7 7-1 2 4 1h-8l4-6z" fill="#F65C27"/>
<path transform="translate(808,88)" d="m0 0h2v11l-3 1v-11z" fill="#10142B"/>
<path transform="translate(1147,40)" d="m0 0h4l-1 10-4 1v-2h2z" fill="#F64F25"/>
<path transform="translate(1048,444)" d="m0 0v3l-2 2h-8l-1-2 10-2z" fill="#0F132B"/>
<path transform="translate(815,400)" d="m0 0 2 4v8l-2-1-1-4-2-2v-3z" fill="#0A0E2A"/>
<path transform="translate(1044,338)" d="m0 0 4 2 7 7-3 1-8-8z" fill="#F99D43"/>
<path transform="translate(815,263)" d="m0 0 5 2 4 5-4-1-2-1-1 2z" fill="#FEDA90"/>
<path transform="translate(1055,247)" d="m0 0 2 3-1 1-13 1-3 1v-2l10-2z" fill="#141529"/>
<path transform="translate(1204,241)" d="m0 0h4l-1 4-2 4h-3l1-7z" fill="#171124"/>
<path transform="translate(883,167)" d="m0 0 3 1 1 5-3 1-1 2-1-5z" fill="#0B0F2A"/>
<path transform="translate(1017,91)" d="m0 0h3l-1 2-2 2-2 4-5 1 4-6z" fill="#10132A"/>
<path transform="translate(904,405)" d="m0 0 2 1-5 5-2 5 2 3-4-1v-5z" fill="#0E1029"/>
<path transform="translate(1085,407)" d="m0 0 2 1v2l-5 3-7 7-2-1z" fill="#FFAF4E"/>
<path transform="translate(1013,372)" d="m0 0 5 2 1 5h-3l-4-5z" fill="#11142A"/>
<path transform="translate(1146,227)" d="m0 0h5v2l-6 4-1 4-1 2-2-3z" fill="#171225"/>
<path transform="translate(1e3 435)" d="m0 0 5 1 1 2h-2v2l-5-1-1-3z" fill="#0A0E2A"/>
<path transform="translate(906,415)" d="m0 0 3 3 2 3h-9l-1-2 5-1z" fill="#11152B"/>
<path transform="translate(856,407)" d="m0 0 6 4v2l-6-1-5-3 2-1 3 1z" fill="#0B0F2A"/>
<path transform="translate(977,327)" d="m0 0 2 1v5l1 3-3 3h-2z" fill="#151226"/>
<path transform="translate(1075,307)" d="m0 0 2 1-10 7-4-1z" fill="#FCC876"/>
<path transform="translate(843,289)" d="m0 0 5 2 8 8h-3l-10-8z" fill="#FEE19A"/>
<path transform="translate(817,263)" d="m0 0 6 1 2 1 1 4 2 3-4-2-7-6z" fill="#141428"/>
<path transform="translate(909,170)" d="m0 0 1 2 3 1-3 7h-3l2-3-1-4z" fill="#12172B"/>
<path transform="translate(927,420)" d="m0 0 2 1 1 3-2 3-5 1 1-4z" fill="#0C0F29"/>
<path transform="translate(969,416)" d="m0 0 4 1 7 7-1 2-10-9z" fill="#F99138"/>
<path transform="translate(836,308)" d="m0 0 3 1-1 2-2 1 1 2-6 3h-3l7-7z" fill="#111228"/>
<path transform="translate(890,254)" d="m0 0 5 3h3v2l-4 1-5-3-1-2z" fill="#11142A"/>
<path transform="translate(928,248)" d="m0 0v3l-8 9h-2l2-4z" fill="#FEE5A0"/>
<path transform="translate(894,241)" d="m0 0 6 4-2 4h-2l-1 2-1-3h2l-2-5z" fill="#14162A"/>
<path transform="translate(1241,116)" d="m0 0h1v8l-1 2-3-1 1-5z" fill="#0A0E2A"/>
</svg>
